<?xml version="1.0" encoding="UTF-8" standalone="no"?>
<!-- Created with Inkscape (http://www.inkscape.org/) -->

<svg
   xmlns:dc="http://purl.org/dc/elements/1.1/"
   xmlns:cc="http://creativecommons.org/ns#"
   xmlns:rdf="http://www.w3.org/1999/02/22-rdf-syntax-ns#"
   xmlns:svg="http://www.w3.org/2000/svg"
   xmlns="http://www.w3.org/2000/svg"
   xmlns:sodipodi="http://sodipodi.sourceforge.net/DTD/sodipodi-0.dtd"
   xmlns:inkscape="http://www.inkscape.org/namespaces/inkscape"
   id="svg8658"
   height="50mm"
   width="50mm"
   version="1.1"
   viewBox="0 0 177.16535 177.16535"
   inkscape:version="0.48.4 r9939"
   sodipodi:docname="icone-heure.svg">
  <defs
     id="defs10" />
  <sodipodi:namedview
     pagecolor="#ffffff"
     bordercolor="#666666"
     borderopacity="1"
     objecttolerance="10"
     gridtolerance="10"
     guidetolerance="10"
     inkscape:pageopacity="0"
     inkscape:pageshadow="2"
     inkscape:window-width="940"
     inkscape:window-height="680"
     id="namedview8"
     showgrid="false"
     inkscape:zoom="1.3320889"
     inkscape:cx="88.58268"
     inkscape:cy="88.58268"
     inkscape:window-x="0"
     inkscape:window-y="24"
     inkscape:window-maximized="0"
     inkscape:current-layer="svg8658" />
  <metadata
     id="metadata8663">
    <rdf:RDF>
      <cc:Work
         rdf:about="">
        <dc:format>image/svg+xml</dc:format>
        <dc:type
           rdf:resource="http://purl.org/dc/dcmitype/StillImage" />
        <dc:title />
      </cc:Work>
    </rdf:RDF>
  </metadata>
  <g
     id="layer1"
     transform="translate(0,-849.2)">
    <ellipse
       id="path4138"
       rx="57.339001"
       ry="56.856998"
       cy="967.56"
       cx="85.766998"
       d="m 143.106,967.56 c 0,31.40125 -25.67155,56.857 -57.339002,56.857 -31.667455,0 -57.339,-25.45575 -57.339,-56.857 0,-31.40126 25.671545,-56.857 57.339,-56.857 31.667452,0 57.339002,25.45574 57.339002,56.857 z"
       sodipodi:cx="85.766998"
       sodipodi:cy="967.56"
       sodipodi:rx="57.339001"
       sodipodi:ry="56.856998" />
    <ellipse
       id="path4140"
       rx="52.619999"
       ry="52.367001"
       cy="967.03003"
       cx="85.766998"
       d="m 138.387,967.03003 c 0,28.9215 -23.55878,52.36697 -52.620002,52.36697 -29.061223,0 -52.619999,-23.44547 -52.619999,-52.36697 0,-28.9215 23.558776,-52.367 52.619999,-52.367 29.061222,0 52.620002,23.4455 52.620002,52.367 z"
       sodipodi:cx="85.766998"
       sodipodi:cy="967.03003"
       sodipodi:rx="52.619999"
       sodipodi:ry="52.367001"
       style="fill:#ffffff" />
    <path
       id="path4144"
       d="m 84.898,926.59 0.86878,46.823 24.325,-17.559"
       inkscape:connector-curvature="0"
       style="fill:none;stroke:#000000;stroke-width:4.95270014" />
  </g>
</svg>
