<?xml version="1.0" encoding="utf-8"?>
<!-- Generator: Adobe Illustrator 16.0.0, SVG Export Plug-In . SVG Version: 6.00 Build 0)  -->
<!DOCTYPE svg PUBLIC "-//W3C//DTD SVG 1.1//EN" "http://www.w3.org/Graphics/SVG/1.1/DTD/svg11.dtd">
<svg version="1.1" xmlns="http://www.w3.org/2000/svg" xmlns:xlink="http://www.w3.org/1999/xlink" x="0px" y="0px" width="1920px"
	 height="1080px" viewBox="0 0 1920 1080" enable-background="new 0 0 1920 1080" xml:space="preserve">
<g id="Calque_1">
	<g opacity="0.75">
		<path fill="#78E8DB" stroke="#63ACC6" stroke-width="5" stroke-miterlimit="10" d="M806.613,233.798
			c47.504,1.157,86.181,11.882,116.029,32.164c29.837,20.281,52.145,46.497,66.918,78.648
			c14.773,32.164,22.746,68.225,23.902,108.209s-2.904,80.245-12.172,120.794c-10.436,46.938-26.656,90.393-48.672,130.365
			c-22.016,39.984-48.961,74.02-80.823,102.123c-31.862,28.102-68.515,49.389-109.932,63.873
			c-41.43,14.486-87.349,19.691-137.757,15.643c-39.406-2.893-73.154-15.629-101.256-38.236
			c-28.102-22.596-49.678-51.275-64.742-86.043c-15.063-34.752-23.035-74.158-23.902-118.191s6.236-88.934,21.3-134.714
			c31.283-95.019,76.322-165.268,135.142-210.747C649.456,252.206,721.439,230.906,806.613,233.798z M764.039,410.031
			c-19.125-0.579-36.225,3.47-51.288,12.159c-15.063,8.701-28.391,20.281-39.972,34.766c-11.593,14.485-21.589,31.007-29.988,49.54
			c-8.399,18.546-15.503,37.67-21.288,57.362c-5.218,17.967-8.11,36.803-8.688,56.492c-0.579,19.703,1.006,37.811,4.778,54.318
			c3.76,16.521,9.845,30.277,18.244,41.279c8.399,11.016,19.552,17.088,33.459,18.244c17.376,1.748,33.748-1.723,49.1-10.422
			c15.352-8.689,29.259-20.572,41.719-35.635s23.475-32.578,33.031-52.57c9.556-19.992,17.816-40.99,24.77-63.02
			c5.206-19.689,8.538-39.104,9.996-58.228c1.446-19.112,0.289-36.212-3.482-51.275c-3.772-15.063-10.437-27.511-19.992-37.369
			C794.882,415.827,781.416,410.609,764.039,410.031z"/>
		<path fill="#78E8DB" stroke="#63ACC6" stroke-width="5" stroke-miterlimit="10" d="M1065.609,470.711
			c5.785-22.595,10.852-42.726,15.201-60.404c4.352-17.666,9.129-34.615,14.348-50.835c5.205-16.22,11.152-32.591,17.816-49.113
			c6.664-16.509,15.201-34.615,25.639-54.318c78.207-9.845,154.115-14.485,227.695-13.906c73.582,0.578,147.465,2.904,221.623,6.953
			c-70.109,100.815-131.961,204.536-185.549,311.135c-53.602,106.613-103.859,212.936-150.783,318.957
			c-15.076-1.158-31.736-1.736-49.98-1.736c-18.258,0-36.652,0.152-55.186,0.441c-18.547,0.289-36.941,0.717-55.186,1.27
			c-18.258,0.553-34.904,1.105-49.969,1.635c19.691-35.836,41.857-74.889,66.477-117.188
			c24.621-42.297,50.547-85.023,77.781-128.188c27.234-43.166,55.047-85.904,83.439-128.202
			c28.391-42.298,56.492-81.402,84.307-117.325c-23.186-1.157-46.648-1.308-70.4-0.44c-23.764,0.88-46.648,3.344-68.664,7.393
			c-11.594,11.593-21.879,23.903-30.857,36.929c-8.977,13.039-16.66,25.349-23.021,36.942
			C1127.309,473.025,1095.736,473.025,1065.609,470.711z"/>
	</g>
</g>
<g id="Calque_3">
	<g>
		<path fill="#34495E" d="M379.955,534.543c12.779-14.938,25.515-28.709,38.205-41.311c12.69-12.597,25.962-24.57,39.825-35.91
			c8.459,3.24,16.154,7.695,23.085,13.365c6.927,5.669,13.002,11.475,18.225,17.415c-15.841,11.163-30.603,22.773-44.28,34.83
			c-13.682,12.062-26.73,23.941-39.15,35.641c6.298,13.681,13.095,28.037,20.385,43.064c7.29,15.031,15.884,31.455,25.785,49.275
			c-8.64,1.442-17.867,3.286-27.675,5.535c-9.813,2.252-19.035,4.632-27.675,7.154c-6.843-12.597-13.5-26.097-19.98-40.5
			c-6.48-14.398-12.783-28.89-18.9-43.47c-2.523,5.94-4.953,12.42-7.29,19.44c-2.341,7.02-4.59,14.04-6.75,21.06
			s-4.231,13.816-6.21,20.385c-1.983,6.573-3.78,12.378-5.4,17.415c-7.383-0.717-15.572-1.08-24.57-1.08
			c-9.003,0-17.643,0.182-25.92,0.54c8.277-32.759,16.647-64.889,25.11-96.39c8.459-31.497,17.55-63.539,27.27-96.12
			c5.759-0.358,11.159-0.675,16.2-0.945c5.037-0.27,9.99-0.405,14.85-0.405c4.86,0,9.762,0,14.715,0
			c4.949,0,10.125,0.093,15.525,0.27c-4.683,13.682-9.18,26.236-13.5,37.665C387.515,512.9,383.554,523.924,379.955,534.543z"/>
		<path fill="#34495E" d="M582.724,462.453c-5.582,16.74-10.893,33.21-15.93,49.411c-5.042,16.199-9.901,32.265-14.58,48.194
			c-4.683,15.931-9.315,31.953-13.905,48.061c-4.59,16.111-9.315,32.534-14.175,49.274c-8.64-0.898-17.461-1.35-26.46-1.35
			c-9.003,0-17.82,0.451-26.46,1.35c3.599-16.2,7.29-32.13,11.07-47.79c3.78-15.66,7.737-31.408,11.88-47.25
			c4.139-15.837,8.547-31.767,13.23-47.79c4.679-16.019,9.809-32.488,15.39-49.41c9.72-1.979,19.71-3.012,29.97-3.105
			C563.014,461.959,573.004,462.094,582.724,462.453z"/>
		<path fill="#34495E" d="M555.181,651.993c4.32-16.2,8.505-31.813,12.555-46.846c4.05-15.026,8.188-29.97,12.42-44.819
			c4.227-14.851,8.64-29.878,13.23-45.09c4.59-15.209,9.673-31.186,15.255-47.925c6.657-2.519,14.534-4.725,23.625-6.615
			c9.087-1.89,17.592-2.923,25.515-3.105c9.897-0.177,19.617,0.405,29.16,1.755c9.539,1.35,18.132,4.143,25.785,8.37
			c7.648,4.231,14.175,10.26,19.575,18.09s8.91,18.048,10.53,30.646c1.257,10.26,1.034,20.747-0.675,31.455
			c-1.713,10.711-4.683,21.106-8.91,31.185c-4.231,10.083-9.585,19.575-16.065,28.485s-13.77,16.604-21.87,23.085
			c-12.42,9.901-26.595,17.103-42.525,21.6c-15.93,4.502-32.535,6.75-49.815,6.75c-9.18,0-17.82-0.675-25.92-2.024
			C568.951,655.638,561.661,653.976,555.181,651.993z M618.901,610.683c9.357,0.182,18.09-1.89,26.19-6.21
			c8.1-4.32,15.12-10.078,21.06-17.28c5.94-7.196,10.618-15.432,14.04-24.704c3.417-9.27,5.13-18.766,5.13-28.485
			c0-4.86-0.633-8.91-1.89-12.15c-1.261-3.239-2.881-5.847-4.86-7.83c-1.983-1.979-4.231-3.417-6.75-4.319
			c-2.523-0.898-5.042-1.438-7.56-1.62c-2.341-0.178-4.906-0.042-7.695,0.405c-2.792,0.451-5.176,1.037-7.155,1.755
			c-5.4,16.199-10.53,32.897-15.39,50.085C629.161,577.52,624.119,594.306,618.901,610.683z"/>
		<path fill="#34495E" d="M741.747,611.223c2.877,0.54,6.21,1.08,9.99,1.62s7.648,0.945,11.61,1.215
			c3.958,0.271,7.872,0.405,11.745,0.405c3.869,0,7.425-0.089,10.665-0.271c7.56-0.54,13.635-1.932,18.225-4.185
			c4.59-2.249,7.467-5.037,8.64-8.37c1.169-3.328,0.359-7.063-2.43-11.205c-2.793-4.139-7.876-8.277-15.255-12.42
			c-10.26-5.759-18.225-11.88-23.895-18.36c-5.67-6.479-8.957-15.026-9.855-25.649c-0.54-5.037-0.093-10.214,1.35-15.525
			c1.439-5.307,3.417-10.032,5.94-14.175c3.958-7.02,9.269-13.095,15.93-18.225c6.657-5.13,14.04-9.404,22.14-12.825
			c8.1-3.417,16.559-6.075,25.38-7.965c8.817-1.89,17.187-3.193,25.11-3.915c9.357-0.899,18.225-1.169,26.595-0.81
			c8.37,0.363,17.233,0.991,26.595,1.89l-14.04,55.081c-3.063-0.718-6.885-1.304-11.475-1.756c-4.59-0.446-9.315-0.582-14.175-0.404
			c-4.86,0.182-9.585,0.633-14.175,1.35c-4.59,0.722-8.417,1.802-11.475,3.24c-4.86,2.522-9.227,5.986-13.095,10.395
			c-3.873,4.413-5.717,9.497-5.535,15.256c0,3.239,1.304,6.121,3.915,8.64c2.607,2.522,5.712,4.86,9.315,7.02
			c3.599,2.16,7.244,4.097,10.935,5.806c3.687,1.713,6.615,3.375,8.775,4.995c2.877,2.159,5.847,4.319,8.91,6.479
			c3.059,2.16,5.805,4.548,8.235,7.155c2.43,2.611,4.273,5.535,5.535,8.774c1.257,3.24,1.62,6.932,1.08,11.07
			c-0.363,2.882-1.173,5.852-2.43,8.91c-1.261,3.063-2.7,5.852-4.32,8.37c-7.383,9.901-16.787,17.597-28.215,23.085
			c-11.433,5.492-23.671,9.314-36.72,11.475c-13.053,2.16-26.283,3.017-39.69,2.565c-13.412-0.447-25.785-1.755-37.125-3.915
			L741.747,611.223z"/>
	</g>
</g>
<g id="Calque_2">
	<g>
		<path fill="#FF5555" d="M373.955,530.541c12.779-14.939,25.515-28.709,38.205-41.31c12.69-12.597,25.962-24.57,39.825-35.91
			c8.459,3.24,16.154,7.695,23.085,13.365c6.927,5.67,13.002,11.475,18.225,17.415c-15.841,11.163-30.603,22.772-44.28,34.83
			c-13.682,12.062-26.73,23.941-39.15,35.64c6.298,13.682,13.095,28.038,20.385,43.064c7.29,15.032,15.884,31.455,25.785,49.275
			c-8.64,1.443-17.867,3.287-27.675,5.535c-9.813,2.253-19.035,4.633-27.675,7.155c-6.843-12.597-13.5-26.097-19.98-40.5
			c-6.48-14.399-12.783-28.89-18.9-43.47c-2.523,5.939-4.953,12.42-7.29,19.439c-2.341,7.02-4.59,14.04-6.75,21.061
			c-2.16,7.02-4.231,13.816-6.21,20.385c-1.983,6.572-3.78,12.377-5.4,17.414c-7.383-0.717-15.572-1.079-24.57-1.079
			c-9.003,0-17.643,0.181-25.92,0.54c8.277-32.759,16.647-64.889,25.11-96.391c8.459-31.497,17.55-63.538,27.27-96.12
			c5.759-0.358,11.159-0.675,16.2-0.945c5.037-0.27,9.99-0.405,14.85-0.405c4.86,0,9.762,0,14.715,0
			c4.949,0,10.125,0.093,15.525,0.27c-4.683,13.682-9.18,26.236-13.5,37.665C381.515,508.898,377.554,519.922,373.955,530.541z"/>
		<path fill="#FF5555" d="M568.084,458.45c-5.582,16.74-10.893,33.21-15.93,49.41c-5.042,16.2-9.901,32.265-14.58,48.194
			c-4.683,15.931-9.315,31.953-13.905,48.061c-4.59,16.111-9.315,32.535-14.175,49.275c-8.64-0.898-17.461-1.35-26.46-1.35
			c-9.003,0-17.82,0.451-26.46,1.35c3.599-16.2,7.29-32.131,11.07-47.79c3.78-15.66,7.737-31.409,11.88-47.25
			c4.139-15.837,8.547-31.768,13.23-47.79c4.679-16.019,9.809-32.489,15.39-49.41c9.72-1.979,19.71-3.012,29.97-3.105
			C548.375,457.957,558.364,458.092,568.084,458.45z"/>
		<path fill="#FF5555" d="M540.542,647.99c4.32-16.199,8.505-31.813,12.555-46.845c4.05-15.027,8.188-29.97,12.42-44.82
			c4.227-14.85,8.64-29.877,13.23-45.09c4.59-15.208,9.673-31.185,15.255-47.925c6.657-2.519,14.534-4.725,23.625-6.615
			c9.087-1.89,17.592-2.923,25.515-3.105c9.897-0.177,19.617,0.405,29.16,1.755c9.539,1.35,18.132,4.143,25.785,8.37
			c7.648,4.231,14.175,10.26,19.575,18.09c5.4,7.83,8.91,18.048,10.53,30.645c1.257,10.26,1.034,20.748-0.675,31.455
			c-1.713,10.712-4.683,21.106-8.91,31.185c-4.231,10.084-9.585,19.576-16.065,28.485c-6.48,8.91-13.77,16.604-21.87,23.085
			c-12.42,9.902-26.595,17.104-42.525,21.6c-15.93,4.502-32.535,6.75-49.815,6.75c-9.18,0-17.82-0.674-25.92-2.024
			S547.021,649.973,540.542,647.99z M604.262,606.68c9.357,0.182,18.09-1.889,26.19-6.209c8.1-4.32,15.12-10.079,21.06-17.28
			c5.94-7.197,10.618-15.433,14.04-24.705c3.417-9.269,5.13-18.765,5.13-28.485c0-4.86-0.633-8.91-1.89-12.15
			c-1.261-3.24-2.881-5.847-4.86-7.83c-1.983-1.979-4.231-3.417-6.75-4.32c-2.523-0.898-5.042-1.438-7.56-1.62
			c-2.341-0.177-4.906-0.042-7.695,0.405c-2.792,0.452-5.176,1.038-7.155,1.755c-5.4,16.2-10.53,32.898-15.39,50.085
			C614.521,573.517,609.48,590.303,604.262,606.68z"/>
		<path fill="#FF5555" d="M727.107,607.221c2.877,0.539,6.21,1.08,9.99,1.619c3.78,0.541,7.648,0.945,11.61,1.215
			c3.958,0.271,7.872,0.406,11.745,0.406c3.869,0,7.425-0.09,10.665-0.271c7.56-0.54,13.635-1.933,18.225-4.185
			c4.59-2.249,7.467-5.037,8.64-8.371c1.169-3.328,0.359-7.062-2.43-11.205c-2.793-4.138-7.876-8.276-15.255-12.42
			c-10.26-5.758-18.225-11.879-23.895-18.359c-5.67-6.48-8.957-15.027-9.855-25.65c-0.54-5.037-0.093-10.214,1.35-15.525
			c1.439-5.308,3.417-10.032,5.94-14.175c3.958-7.02,9.269-13.095,15.93-18.225c6.657-5.13,14.04-9.403,22.14-12.825
			c8.1-3.417,16.559-6.075,25.38-7.965c8.817-1.89,17.187-3.193,25.11-3.915c9.357-0.899,18.225-1.169,26.595-0.81
			c8.37,0.363,17.233,0.991,26.595,1.89l-14.04,55.08c-3.063-0.717-6.885-1.304-11.475-1.755c-4.59-0.447-9.315-0.582-14.175-0.405
			c-4.86,0.181-9.585,0.633-14.175,1.35c-4.59,0.722-8.417,1.802-11.475,3.24c-4.86,2.523-9.227,5.986-13.095,10.395
			c-3.873,4.413-5.717,9.496-5.535,15.255c0,3.24,1.304,6.122,3.915,8.64c2.607,2.523,5.712,4.86,9.315,7.021
			c3.599,2.159,7.244,4.097,10.935,5.805c3.687,1.713,6.615,3.375,8.775,4.995c2.877,2.16,5.847,4.32,8.91,6.48
			c3.059,2.16,5.805,4.547,8.235,7.154c2.43,2.611,4.273,5.535,5.535,8.775c1.257,3.24,1.62,6.932,1.08,11.07
			c-0.363,2.881-1.173,5.852-2.43,8.91c-1.261,3.063-2.7,5.852-4.32,8.369c-7.383,9.902-16.787,17.597-28.215,23.086
			c-11.433,5.492-23.671,9.314-36.72,11.475c-13.053,2.16-26.283,3.016-39.69,2.564c-13.412-0.447-25.785-1.755-37.125-3.914
			L727.107,607.221z"/>
	</g>
</g>
<g id="Calque_4">
	<g>
		<path fill="#34495E" d="M790.191,729.931c-11.34-3.418-22.68-4.362-34.02-2.835c-11.34,1.531-21.828,5.087-31.455,10.665
			c-9.631,5.581-17.82,12.96-24.57,22.14s-11.205,19.71-13.365,31.59c-0.903,6.121,0.088,12.15,2.97,18.09
			c2.877,5.94,8.189,9.901,15.93,11.88c4.32,0.903,8.817,1.443,13.5,1.62c4.679,0.182,9.855-0.224,15.525-1.215
			c5.67-0.987,12.015-2.7,19.035-5.13s15.12-5.894,24.3-10.396c-2.16,5.764-4.096,10.665-5.805,14.716
			c-1.713,4.05-3.468,7.876-5.265,11.475c-1.801,3.603-3.827,7.29-6.075,11.07c-2.252,3.779-4.995,8.192-8.235,13.229
			c-6.662,3.603-13.863,6.122-21.6,7.561c-7.741,1.442-14.761,2.337-21.06,2.699c-12.96,0.178-24.481-1.843-34.56-6.074
			c-10.083-4.228-18.453-10.032-25.11-17.415c-6.661-7.379-11.433-16.2-14.31-26.46c-2.881-10.261-3.603-21.419-2.16-33.48
			c1.62-13.318,5.172-25.827,10.665-37.53c5.488-11.698,12.327-22.274,20.52-31.725c8.188-9.45,17.55-17.592,28.08-24.435
			c10.53-6.839,21.735-12.058,33.615-15.66c7.737-2.338,15.525-4.004,23.355-4.995c7.83-0.987,15.432-1.527,22.815-1.62
			c7.378-0.089,14.445,0.135,21.195,0.675s13.002,1.173,18.765,1.891c-2.7,7.201-5.042,13.229-7.02,18.09
			c-1.983,4.859-3.78,9.361-5.4,13.5c-1.62,4.143-3.198,8.327-4.725,12.555C794.195,718.637,792.352,723.813,790.191,729.931z"/>
		<path fill="#34495E" d="M918.713,663.511c14.04-0.178,26.097,2.252,36.181,7.289c10.078,5.042,18.043,11.974,23.895,20.79
			c5.848,8.822,9.492,19.306,10.936,31.455c1.438,12.15,0.628,25.338-2.431,39.556c-3.421,15.841-8.733,30.239-15.931,43.199
			c-7.201,12.961-15.93,24.077-26.189,33.346c-10.26,9.272-21.963,16.47-35.1,21.6c-13.142,5.13-27.363,7.695-42.66,7.695
			c-12.96,0-24.123-2.653-33.48-7.965c-9.361-5.308-16.787-12.463-22.275-21.465c-5.493-8.999-9.045-19.482-10.665-31.455
			c-1.62-11.969-1.173-24.612,1.35-37.936c3.24-17.28,8.547-32.488,15.93-45.63c7.378-13.137,16.242-24.165,26.595-33.075
			c10.348-8.91,21.823-15.66,34.425-20.25C891.89,666.075,905.032,663.691,918.713,663.511z M904.133,725.34
			c-5.94,0-11.475,1.351-16.605,4.051c-5.13,2.699-9.72,6.303-13.77,10.8c-4.05,4.501-7.518,9.631-10.395,15.39
			c-2.881,5.763-5.041,11.703-6.48,17.82c-1.62,5.763-2.206,11.387-1.755,16.875c0.447,5.493,1.708,10.441,3.78,14.85
			c2.067,4.413,4.949,7.965,8.64,10.665c3.688,2.7,8.054,3.962,13.095,3.78c5.037-0.177,10.125-1.662,15.255-4.455
			c5.13-2.788,9.897-6.387,14.31-10.8c4.408-4.409,8.277-9.539,11.609-15.391c3.329-5.847,5.806-12.015,7.426-18.494
			c1.438-6.117,1.979-11.923,1.619-17.415c-0.362-5.489-1.577-10.303-3.645-14.445c-2.071-4.139-5.041-7.379-8.91-9.72
			C914.435,726.513,909.71,725.34,904.133,725.34z"/>
		<path fill="#34495E" d="M987.563,857.641c4.319-16.2,8.505-31.813,12.556-46.846c4.049-15.026,8.188-29.97,12.42-44.819
			c4.227-14.851,8.64-29.878,13.229-45.09c4.59-15.209,9.673-31.186,15.255-47.926c6.657-2.519,14.533-4.725,23.625-6.614
			c9.088-1.891,17.592-2.924,25.516-3.105c9.896-0.177,19.617,0.405,29.159,1.755c9.539,1.351,18.132,4.143,25.785,8.37
			c7.648,4.231,14.175,10.26,19.575,18.09c5.399,7.83,8.91,18.048,10.53,30.646c1.257,10.26,1.033,20.747-0.676,31.455
			c-1.713,10.711-4.683,21.106-8.909,31.185c-4.232,10.083-9.586,19.575-16.065,28.485s-13.771,16.604-21.87,23.085
			c-12.42,9.901-26.595,17.103-42.525,21.6c-15.93,4.502-32.535,6.75-49.814,6.75c-9.18,0-17.82-0.675-25.92-2.024
			C1001.333,861.285,994.042,859.623,987.563,857.641z M1051.282,816.33c9.357,0.182,18.09-1.89,26.19-6.21
			c8.1-4.32,15.12-10.078,21.06-17.28c5.94-7.196,10.619-15.432,14.04-24.704c3.417-9.27,5.13-18.766,5.13-28.485
			c0-4.86-0.633-8.91-1.89-12.15c-1.261-3.239-2.882-5.847-4.86-7.83c-1.982-1.979-4.23-3.417-6.75-4.319
			c-2.522-0.898-5.041-1.438-7.56-1.62c-2.341-0.178-4.906-0.042-7.695,0.405c-2.792,0.451-5.177,1.037-7.155,1.755
			c-5.399,16.199-10.529,32.897-15.39,50.085C1061.542,783.167,1056.501,799.953,1051.282,816.33z"/>
		<path fill="#34495E" d="M1281.592,668.101c-5.581,16.739-10.893,33.21-15.93,49.41c-5.042,16.199-9.901,32.265-14.58,48.194
			c-4.683,15.931-9.315,31.953-13.905,48.061c-4.59,16.111-9.315,32.534-14.175,49.274c-8.641-0.898-17.462-1.35-26.46-1.35
			c-9.003,0-17.82,0.451-26.46,1.35c3.599-16.2,7.29-32.13,11.069-47.79c3.78-15.66,7.737-31.408,11.881-47.25
			c4.138-15.837,8.547-31.767,13.229-47.79c4.679-16.019,9.809-32.488,15.39-49.41c9.721-1.979,19.71-3.012,29.971-3.104
			C1261.882,667.606,1271.872,667.741,1281.592,668.101z"/>
		<path fill="#34495E" d="M1303.729,672.96c11.699-1.438,22.275-2.248,31.726-2.43c9.449-0.177,19.212-0.177,29.295,0
			c0.177,7.56,0.582,15.888,1.215,24.975c0.628,9.092,1.35,18.36,2.16,27.811c0.81,9.45,1.62,18.723,2.43,27.81
			c0.81,9.092,1.485,17.327,2.025,24.705c3.779-17.819,8.188-35.682,13.229-53.595c5.037-17.908,10.349-35.863,15.93-53.865
			c3.958-0.54,8.37-1.033,13.23-1.484c4.86-0.447,9.854-0.764,14.985-0.945c5.13-0.178,10.26-0.224,15.39-0.135
			c5.13,0.093,9.943,0.404,14.445,0.944c-11.521,32.4-22.233,64.936-32.131,97.605c-9.901,32.67-18.899,64.935-27,96.795
			c-9.361-0.358-19.532-0.271-30.51,0.27c-10.981,0.54-21.06,1.443-30.24,2.7c-0.539-6.117-1.215-13.049-2.024-20.79
			c-0.811-7.737-1.667-15.837-2.565-24.3c-0.902-8.459-1.801-16.964-2.699-25.515c-0.903-8.548-1.713-16.694-2.431-24.436
			c-5.223,16.382-9.854,32.223-13.905,47.521c-4.05,15.301-7.965,30.691-11.744,46.17c-9.003-0.178-17.28-0.224-24.841-0.135
			c-7.56,0.093-15.752,0.404-24.569,0.944c3.24-14.938,6.703-30.417,10.395-46.439c3.688-16.019,7.561-32.13,11.61-48.33
			s8.277-32.354,12.689-48.465C1294.233,704.238,1298.87,688.443,1303.729,672.96z"/>
		<path fill="#34495E" d="M1626.109,732.9c-5.223-2.16-11.163-3.869-17.82-5.13c-6.661-1.258-13.77-1.798-21.33-1.62
			c-9.72,0.182-19.756,1.802-30.104,4.86c-10.353,3.063-19.668,7.56-27.945,13.5c-8.281,5.939-14.896,13.322-19.845,22.14
			c-4.953,8.821-6.978,18.993-6.075,30.51c0.54,7.201,3.599,13.411,9.18,18.63c5.577,5.223,13.049,7.923,22.41,8.101
			c5.4,0,10.167-0.359,14.311-1.08c4.139-0.718,8.1-2.249,11.88-4.59c0.54-2.338,1.304-5.4,2.295-9.181
			c0.987-3.779,2.067-7.83,3.24-12.149c1.168-4.32,2.383-8.729,3.645-13.23c1.257-4.497,2.43-8.547,3.51-12.149
			c7.379-0.718,15.567-1.258,24.57-1.62c8.999-0.359,18.63-0.54,28.89-0.54c-3.063,10.8-6.572,22.996-10.529,36.585
			c-3.962,13.593-8.282,26.958-12.96,40.095c-4.32,3.24-9.361,6.121-15.12,8.64c-5.763,2.523-11.88,4.726-18.36,6.615
			c-6.479,1.89-13.142,3.375-19.979,4.455c-6.843,1.08-13.5,1.62-19.98,1.62c-10.441,0.177-20.655-1.08-30.645-3.78
			c-9.99-2.7-18.993-6.885-27-12.555c-8.012-5.67-14.492-12.825-19.44-21.465c-4.953-8.641-7.695-18.808-8.235-30.511
			c-0.721-16.199,1.798-31.273,7.561-45.225c5.759-13.947,13.677-26.413,23.76-37.395c10.079-10.978,21.912-20.25,35.505-27.811
			c13.589-7.56,27.945-13.049,43.065-16.47c7.56-1.62,15.255-2.789,23.085-3.51c7.83-0.718,15.524-1.034,23.085-0.945
			c7.56,0.093,14.85,0.54,21.87,1.35c7.02,0.811,13.407,1.849,19.17,3.105c-1.262,5.939-2.431,11.298-3.51,16.064
			c-1.08,4.771-2.207,9.408-3.375,13.905c-1.173,4.502-2.431,9.18-3.78,14.04C1629.754,721.021,1628.088,726.602,1626.109,732.9z"/>
	</g>
</g>
<g id="Calque_5">
	<g>
		<path fill="#0E76E7" d="M782.192,720.112c-11.34-3.418-22.68-4.362-34.02-2.835c-11.34,1.531-21.828,5.087-31.455,10.665
			c-9.631,5.581-17.82,12.96-24.57,22.14s-11.205,19.71-13.365,31.59c-0.903,6.121,0.088,12.15,2.97,18.09
			c2.877,5.94,8.189,9.901,15.93,11.88c4.32,0.903,8.817,1.443,13.5,1.62c4.679,0.182,9.855-0.224,15.525-1.215
			c5.67-0.987,12.015-2.7,19.035-5.13s15.12-5.894,24.3-10.396c-2.16,5.764-4.096,10.665-5.805,14.716
			c-1.713,4.05-3.468,7.876-5.265,11.475c-1.801,3.603-3.827,7.29-6.075,11.07c-2.252,3.779-4.995,8.192-8.235,13.229
			c-6.662,3.603-13.863,6.122-21.6,7.561c-7.741,1.442-14.761,2.337-21.06,2.699c-12.96,0.178-24.481-1.843-34.56-6.074
			c-10.083-4.228-18.453-10.032-25.11-17.415c-6.661-7.379-11.433-16.2-14.31-26.46c-2.881-10.261-3.603-21.419-2.16-33.48
			c1.62-13.318,5.172-25.827,10.665-37.53c5.488-11.698,12.327-22.274,20.52-31.725c8.188-9.45,17.55-17.592,28.08-24.435
			c10.53-6.839,21.735-12.058,33.615-15.66c7.737-2.338,15.525-4.004,23.355-4.995c7.83-0.987,15.432-1.527,22.815-1.62
			c7.378-0.089,14.445,0.135,21.195,0.675s13.002,1.173,18.765,1.891c-2.7,7.201-5.042,13.229-7.02,18.09
			c-1.983,4.859-3.78,9.361-5.4,13.5c-1.62,4.143-3.198,8.327-4.725,12.555C786.196,708.818,784.352,713.995,782.192,720.112z"/>
		<path fill="#0E76E7" d="M910.714,653.692c14.039-0.178,26.097,2.252,36.18,7.289c10.078,5.042,18.043,11.974,23.895,20.79
			c5.848,8.822,9.492,19.306,10.936,31.455c1.438,12.15,0.629,25.338-2.43,39.556c-3.422,15.841-8.733,30.239-15.931,43.199
			c-7.201,12.961-15.93,24.077-26.19,33.346c-10.26,9.272-21.963,16.47-35.1,21.6c-13.141,5.13-27.363,7.695-42.66,7.695
			c-12.96,0-24.123-2.653-33.48-7.965c-9.361-5.308-16.787-12.463-22.275-21.465c-5.493-8.999-9.045-19.482-10.665-31.455
			c-1.62-11.969-1.173-24.612,1.35-37.936c3.24-17.28,8.547-32.488,15.93-45.63c7.378-13.137,16.242-24.165,26.595-33.075
			c10.348-8.91,21.823-15.66,34.425-20.25C883.891,656.257,897.032,653.873,910.714,653.692z M896.133,715.521
			c-5.94,0-11.475,1.351-16.605,4.051c-5.13,2.699-9.72,6.303-13.77,10.8c-4.05,4.501-7.518,9.631-10.395,15.39
			c-2.881,5.763-5.041,11.703-6.48,17.82c-1.62,5.763-2.206,11.387-1.755,16.875c0.447,5.493,1.708,10.441,3.78,14.85
			c2.067,4.413,4.949,7.965,8.64,10.665c3.688,2.7,8.054,3.962,13.095,3.78c5.037-0.177,10.125-1.662,15.255-4.455
			c5.13-2.788,9.897-6.387,14.31-10.8c4.409-4.409,8.277-9.539,11.61-15.391c3.329-5.847,5.806-12.015,7.425-18.494
			c1.439-6.117,1.979-11.923,1.62-17.415c-0.362-5.489-1.577-10.303-3.646-14.445c-2.07-4.139-5.041-7.379-8.909-9.72
			C906.436,716.694,901.71,715.521,896.133,715.521z"/>
		<path fill="#0E76E7" d="M979.563,847.822c4.319-16.2,8.504-31.813,12.555-46.846c4.05-15.026,8.188-29.97,12.42-44.819
			c4.227-14.851,8.641-29.878,13.23-45.09c4.59-15.209,9.673-31.186,15.254-47.926c6.658-2.519,14.534-4.725,23.625-6.614
			c9.088-1.891,17.593-2.924,25.516-3.105c9.896-0.177,19.617,0.405,29.16,1.755c9.539,1.351,18.132,4.143,25.785,8.37
			c7.648,4.231,14.175,10.26,19.574,18.09c5.4,7.83,8.91,18.048,10.53,30.646c1.257,10.26,1.034,20.747-0.675,31.455
			c-1.713,10.711-4.684,21.106-8.91,31.185c-4.231,10.083-9.585,19.575-16.064,28.485c-6.48,8.91-13.771,16.604-21.871,23.085
			c-12.42,9.901-26.594,17.103-42.524,21.6c-15.931,4.502-32.535,6.75-49.815,6.75c-9.18,0-17.819-0.675-25.92-2.024
			C993.333,851.467,986.043,849.805,979.563,847.822z M1043.283,806.512c9.356,0.182,18.09-1.89,26.19-6.21
			c8.1-4.32,15.119-10.078,21.06-17.28c5.94-7.196,10.618-15.432,14.04-24.704c3.417-9.27,5.13-18.766,5.13-28.485
			c0-4.86-0.633-8.91-1.89-12.15c-1.262-3.239-2.882-5.847-4.86-7.83c-1.983-1.979-4.231-3.417-6.75-4.319
			c-2.522-0.898-5.042-1.438-7.56-1.62c-2.342-0.178-4.906-0.042-7.695,0.405c-2.793,0.451-5.177,1.037-7.155,1.755
			c-5.399,16.199-10.53,32.897-15.39,50.085C1053.543,773.349,1048.501,790.135,1043.283,806.512z"/>
		<path fill="#0E76E7" d="M1273.593,658.282c-5.582,16.739-10.893,33.21-15.93,49.41c-5.043,16.199-9.902,32.265-14.58,48.194
			c-4.684,15.931-9.316,31.953-13.906,48.061c-4.59,16.111-9.314,32.534-14.174,49.274c-8.641-0.898-17.462-1.35-26.461-1.35
			c-9.002,0-17.82,0.451-26.46,1.35c3.599-16.2,7.29-32.13,11.07-47.79s7.737-31.408,11.88-47.25
			c4.139-15.837,8.547-31.767,13.23-47.79c4.678-16.019,9.809-32.488,15.389-49.41c9.721-1.979,19.711-3.012,29.971-3.104
			C1253.882,657.788,1263.872,657.923,1273.593,658.282z"/>
		<path fill="#0E76E7" d="M1295.729,663.142c11.699-1.438,22.275-2.248,31.727-2.43c9.449-0.177,19.211-0.177,29.295,0
			c0.176,7.56,0.582,15.888,1.215,24.975c0.627,9.092,1.35,18.36,2.16,27.811c0.809,9.45,1.619,18.723,2.43,27.81
			c0.809,9.092,1.484,17.327,2.025,24.705c3.779-17.819,8.188-35.682,13.229-53.595c5.037-17.908,10.35-35.863,15.93-53.865
			c3.959-0.54,8.371-1.033,13.23-1.484c4.861-0.447,9.855-0.764,14.986-0.945c5.129-0.178,10.26-0.224,15.389-0.135
			c5.131,0.093,9.943,0.404,14.445,0.944c-11.521,32.4-22.232,64.936-32.131,97.605c-9.9,32.67-18.898,64.935-27,96.795
			c-9.361-0.358-19.531-0.271-30.51,0.27c-10.98,0.54-21.059,1.443-30.24,2.7c-0.539-6.117-1.215-13.049-2.023-20.79
			c-0.811-7.737-1.668-15.837-2.566-24.3c-0.902-8.459-1.801-16.964-2.699-25.515c-0.902-8.548-1.713-16.694-2.43-24.436
			c-5.223,16.382-9.855,32.223-13.906,47.521c-4.049,15.301-7.965,30.691-11.744,46.17c-9.002-0.178-17.279-0.224-24.84-0.135
			c-7.561,0.093-15.752,0.404-24.57,0.944c3.24-14.938,6.703-30.417,10.395-46.439c3.688-16.019,7.561-32.13,11.611-48.33
			c4.049-16.2,8.277-32.354,12.689-48.465C1286.233,694.42,1290.87,678.625,1295.729,663.142z"/>
		<path fill="#0E76E7" d="M1618.11,723.082c-5.223-2.16-11.164-3.869-17.82-5.13c-6.662-1.258-13.77-1.798-21.33-1.62
			c-9.721,0.182-19.756,1.802-30.105,4.86c-10.352,3.063-19.668,7.56-27.945,13.5c-8.281,5.939-14.896,13.322-19.844,22.14
			c-4.953,8.821-6.979,18.993-6.076,30.51c0.541,7.201,3.6,13.411,9.18,18.63c5.578,5.223,13.049,7.923,22.41,8.101
			c5.4,0,10.168-0.359,14.311-1.08c4.139-0.718,8.1-2.249,11.881-4.59c0.539-2.338,1.303-5.4,2.295-9.181
			c0.986-3.779,2.066-7.83,3.24-12.149c1.168-4.32,2.383-8.729,3.645-13.23c1.256-4.497,2.43-8.547,3.51-12.149
			c7.379-0.718,15.566-1.258,24.57-1.62c8.998-0.359,18.629-0.54,28.889-0.54c-3.063,10.8-6.572,22.996-10.529,36.585
			c-3.961,13.593-8.281,26.958-12.959,40.095c-4.32,3.24-9.361,6.121-15.121,8.64c-5.762,2.523-11.879,4.726-18.359,6.615
			s-13.143,3.375-19.98,4.455c-6.842,1.08-13.5,1.62-19.98,1.62c-10.441,0.177-20.654-1.08-30.645-3.78s-18.992-6.885-27-12.555
			c-8.012-5.67-14.492-12.825-19.439-21.465c-4.953-8.641-7.695-18.808-8.236-30.511c-0.721-16.199,1.799-31.273,7.561-45.225
			c5.76-13.947,13.678-26.413,23.76-37.395c10.08-10.978,21.912-20.25,35.506-27.811c13.588-7.56,27.945-13.049,43.064-16.47
			c7.561-1.62,15.256-2.789,23.086-3.51c7.83-0.718,15.523-1.034,23.084-0.945c7.561,0.093,14.85,0.54,21.871,1.35
			c7.02,0.811,13.406,1.849,19.17,3.105c-1.262,5.939-2.432,11.298-3.51,16.064c-1.08,4.771-2.207,9.408-3.375,13.905
			c-1.174,4.502-2.432,9.18-3.781,14.04S1620.089,716.783,1618.11,723.082z"/>
	</g>
</g>
</svg>
